<svg preserveAspectRatio="none" width="100%" height="100%" overflow="visible" style="display: block;" viewBox="0 0 13 16" fill="none" xmlns="http://www.w3.org/2000/svg">
<g id="Vector">
<path d="M12.5 6.50007C12.5 10.2449 8.34575 14.1449 6.95075 15.3494C6.82079 15.4472 6.6626 15.5 6.5 15.5C6.3374 15.5 6.17921 15.4472 6.04925 15.3494C4.65425 14.1449 0.5 10.2449 0.5 6.50007C0.5 4.90876 1.13214 3.38261 2.25736 2.25738C3.38258 1.13215 4.9087 0.5 6.5 0.5C8.0913 0.5 9.61742 1.13215 10.7426 2.25738C11.8679 3.38261 12.5 4.90876 12.5 6.50007Z" stroke="var(--stroke-0, #1CA44D)" stroke-linecap="round" stroke-linejoin="round"/>
<path d="M6.5 8.7501C7.74264 8.7501 8.75 7.74273 8.75 6.50007C8.75 5.25742 7.74264 4.25005 6.5 4.25005C5.25736 4.25005 4.25 5.25742 4.25 6.50007C4.25 7.74273 5.25736 8.7501 6.5 8.7501Z" stroke="var(--stroke-0, #1CA44D)" stroke-linecap="round" stroke-linejoin="round"/>
</g>
</svg>
