<svg preserveAspectRatio="none" width="100%" height="100%" overflow="visible" style="display: block;" viewBox="0 0 14 14" fill="none" xmlns="http://www.w3.org/2000/svg">
<path id="Vector" d="M1 12.4286C1 10.6241 2.11278 9.20452 4.05564 8.81956C5.51128 8.53084 7.01504 7.61655 7.61654 7.01505M6.41353 11.8271C5.35733 11.8303 4.3385 11.4364 3.55911 10.7236C2.77972 10.0107 2.2967 9.03102 2.20586 7.97872C2.11501 6.92643 2.42297 5.87842 3.06866 5.04256C3.71435 4.2067 4.6506 3.64404 5.69173 3.46618C9.1203 2.80452 10.0226 2.49174 11.2256 1.00001C11.8271 2.20302 12.4286 3.5143 12.4286 5.81204C12.4286 9.12031 9.55338 11.8271 6.41353 11.8271Z" stroke="var(--stroke-0, #93A49D)" stroke-width="2" stroke-linecap="round" stroke-linejoin="round"/>
</svg>
