<svg preserveAspectRatio="none" width="100%" height="100%" overflow="visible" style="display: block;" viewBox="0 0 18 13" fill="none" xmlns="http://www.w3.org/2000/svg">
<g id="Vector">
<path d="M0.944279 10.7453C0.351907 7.94615 0.351907 5.05373 0.944279 2.25454C1.02211 1.97028 1.1725 1.7112 1.38065 1.50277C1.5888 1.29435 1.84755 1.14377 2.13144 1.06583C6.67948 0.31139 11.3205 0.31139 15.8686 1.06583C16.1525 1.14377 16.4112 1.29435 16.6193 1.50277C16.8275 1.7112 16.9779 1.97028 17.0557 2.25454C17.6481 5.05373 17.6481 7.94615 17.0557 10.7453C16.9779 11.0296 16.8275 11.2887 16.6193 11.4971C16.4112 11.7055 16.1525 11.8561 15.8686 11.9341C11.3205 12.6886 6.67947 12.6886 2.13144 11.9341C1.84755 11.8561 1.5888 11.7055 1.38065 11.4971C1.1725 11.2887 1.02211 11.0296 0.944279 10.7453Z" stroke="var(--stroke-0, black)" stroke-linecap="round" stroke-linejoin="round"/>
<path d="M7.30406 9.04718L11.5439 6.49994L7.30406 3.9527V9.04718Z" stroke="var(--stroke-0, black)" stroke-linecap="round" stroke-linejoin="round"/>
</g>
</svg>
