<svg preserveAspectRatio="none" width="100%" height="100%" overflow="visible" style="display: block;" viewBox="0 0 17 16" fill="none" xmlns="http://www.w3.org/2000/svg">
<g id="Vector">
<path d="M11.7 5.23684C12.973 5.23684 14.1939 5.7359 15.0941 6.62423C15.9943 7.51256 16.5 8.7174 16.5 9.97368V15.5H13.3V9.97368C13.3 9.55492 13.1314 9.15331 12.8314 8.8572C12.5313 8.56109 12.1243 8.39474 11.7 8.39474C11.2757 8.39474 10.8687 8.56109 10.5686 8.8572C10.2686 9.15331 10.1 9.55492 10.1 9.97368V15.5H6.9V9.97368C6.9 8.7174 7.40571 7.51256 8.30589 6.62423C9.20606 5.7359 10.427 5.23684 11.7 5.23684Z" stroke="var(--stroke-0, black)" stroke-linecap="round" stroke-linejoin="round"/>
<path d="M3.7 6.02632H0.5V15.5H3.7V6.02632Z" stroke="var(--stroke-0, black)" stroke-linecap="round" stroke-linejoin="round"/>
<path d="M2.1 3.65789C2.98366 3.65789 3.7 2.95098 3.7 2.07895C3.7 1.20692 2.98366 0.5 2.1 0.5C1.21634 0.5 0.5 1.20692 0.5 2.07895C0.5 2.95098 1.21634 3.65789 2.1 3.65789Z" stroke="var(--stroke-0, black)" stroke-linecap="round" stroke-linejoin="round"/>
</g>
</svg>
