<svg preserveAspectRatio="none" width="100%" height="100%" overflow="visible" style="display: block;" viewBox="0 0 14 18" fill="none" xmlns="http://www.w3.org/2000/svg">
<path id="Vector" d="M6.71428 16.7143V14.2331M10.1625 10.0977L12.2314 12.8271C12.3259 12.9427 12.39 13.089 12.4158 13.2479C12.4417 13.4068 12.428 13.5713 12.3766 13.721C12.3252 13.8707 12.2383 13.999 12.1267 14.09C12.0151 14.1811 11.8836 14.2308 11.7486 14.2331H1.67995C1.54497 14.2308 1.41351 14.1811 1.30188 14.09C1.19024 13.999 1.10334 13.8707 1.05194 13.721C1.00054 13.5713 0.986909 13.4068 1.01273 13.2479C1.03855 13.089 1.10269 12.9427 1.1972 12.8271L3.26611 10.0977H3.05922C2.92424 10.0955 2.79278 10.0457 2.68115 9.95471C2.56951 9.86368 2.48261 9.73537 2.43121 9.58566C2.37981 9.43596 2.36618 9.27146 2.392 9.11256C2.41782 8.95365 2.48196 8.80733 2.57647 8.69173L4.64538 5.96241H4.50745C4.36659 5.97764 4.22523 5.94058 4.10253 5.85622C3.97983 5.77187 3.88172 5.64432 3.8215 5.49085C3.76127 5.33737 3.74186 5.16541 3.76587 4.99826C3.78988 4.8311 3.85617 4.67685 3.95574 4.55639L6.71428 1L9.47282 4.55639C9.5724 4.67685 9.63868 4.8311 9.6627 4.99826C9.68671 5.16541 9.66729 5.33737 9.60707 5.49085C9.54685 5.64432 9.44874 5.77187 9.32604 5.85622C9.20334 5.94058 9.06197 5.97764 8.92112 5.96241H8.78319L10.8521 8.69173C10.9466 8.80733 11.0107 8.95365 11.0366 9.11256C11.0624 9.27146 11.0488 9.43596 10.9974 9.58566C10.946 9.73537 10.8591 9.86368 10.7474 9.95471C10.6358 10.0457 10.5043 10.0955 10.3693 10.0977H10.1625Z" stroke="var(--stroke-0, #269063)" stroke-width="2" stroke-linecap="round" stroke-linejoin="round"/>
</svg>
