<svg preserveAspectRatio="none" width="100%" height="100%" overflow="visible" style="display: block;" viewBox="0 0 16 13" fill="none" xmlns="http://www.w3.org/2000/svg">
<path id="Vector" d="M8.00751 4.50615V7.17075M8.00751 9.83535H8.01501M15.2992 10.5015L9.30398 1.17541C9.17325 0.970369 8.98369 0.799823 8.75461 0.681169C8.52553 0.562516 8.26515 0.5 8.00002 0.5C7.73489 0.5 7.4745 0.562516 7.24543 0.681169C7.01635 0.799823 6.82678 0.970369 6.69606 1.17541L0.700837 10.5015C0.568704 10.7049 0.499419 10.9358 0.500004 11.1707C0.500589 11.4055 0.571024 11.6361 0.704169 11.839C0.837314 12.0419 1.02844 12.2099 1.25816 12.326C1.48789 12.442 1.74806 12.5021 2.01229 12.4999H14.0027C14.2657 12.4997 14.524 12.438 14.7516 12.3209C14.9792 12.2039 15.1682 12.0357 15.2996 11.8332C15.4309 11.6307 15.5001 11.4011 15.5 11.1673C15.4999 10.9336 15.4307 10.7039 15.2992 10.5015Z" stroke="var(--stroke-0, #E45D5D)" stroke-linecap="round" stroke-linejoin="round"/>
</svg>
