<svg preserveAspectRatio="none" width="100%" height="100%" overflow="visible" style="display: block;" viewBox="0 0 14 14" fill="none" xmlns="http://www.w3.org/2000/svg">
<path id="Vector" d="M8.1908 9.9692C8.32504 10.0309 8.47628 10.0449 8.6196 10.0091C8.76292 9.97334 8.88977 9.88979 8.97925 9.77225L9.21 9.47C9.33109 9.30854 9.48811 9.1775 9.66862 9.08724C9.84913 8.99699 10.0482 8.95 10.25 8.95H12.2C12.5448 8.95 12.8754 9.08696 13.1192 9.33076C13.363 9.57456 13.5 9.90522 13.5 10.25V12.2C13.5 12.5448 13.363 12.8754 13.1192 13.1192C12.8754 13.363 12.5448 13.5 12.2 13.5C9.09697 13.5 6.12103 12.2673 3.92685 10.0731C1.73268 7.87897 0.5 4.90303 0.5 1.8C0.5 1.45522 0.636964 1.12456 0.880761 0.880761C1.12456 0.636964 1.45522 0.5 1.8 0.5H3.75C4.09478 0.5 4.42544 0.636964 4.66924 0.880761C4.91304 1.12456 5.05 1.45522 5.05 1.8V3.75C5.05 3.95182 5.00301 4.15087 4.91276 4.33138C4.8225 4.51189 4.69145 4.66891 4.53 4.79L4.2258 5.01815C4.10647 5.10927 4.02236 5.23888 3.98776 5.38498C3.95317 5.53107 3.97021 5.68464 4.036 5.8196C4.92434 7.62391 6.38538 9.08312 8.1908 9.9692Z" stroke="var(--stroke-0, #1CA44D)" stroke-linecap="round" stroke-linejoin="round"/>
</svg>
