<svg preserveAspectRatio="none" width="100%" height="100%" overflow="visible" style="display: block;" viewBox="0 0 18 17" fill="none" xmlns="http://www.w3.org/2000/svg">
<path id="Vector" d="M7.30062 14.8154C7.30055 14.9719 7.34449 15.1253 7.42753 15.2585C7.51057 15.3916 7.62942 15.4992 7.77073 15.5691L9.47096 16.4112C9.6006 16.4754 9.74465 16.5056 9.88943 16.4991C10.0342 16.4926 10.1749 16.4496 10.2982 16.3741C10.4214 16.2986 10.5231 16.1931 10.5936 16.0677C10.6642 15.9423 10.7011 15.8011 10.7011 15.6575V9.76293C10.7013 9.34558 10.8579 8.94316 11.1406 8.6337L17.281 1.90628C17.391 1.78549 17.4634 1.63571 17.4893 1.47504C17.5153 1.31437 17.4937 1.1497 17.4271 1.00094C17.3606 0.852175 17.2519 0.725698 17.1144 0.636798C16.9768 0.547898 16.8162 0.500384 16.6519 0.5H1.34981C1.1854 0.500059 1.02454 0.547338 0.886709 0.636112C0.748877 0.724885 0.639988 0.851343 0.573233 1.00017C0.506478 1.14899 0.484721 1.3138 0.510597 1.47462C0.536473 1.63544 0.608872 1.78539 0.719024 1.90628L6.86111 8.6337C7.1438 8.94316 7.30043 9.34558 7.30062 9.76293V14.8154Z" stroke="var(--stroke-0, black)" stroke-linecap="round" stroke-linejoin="round"/>
</svg>
