<svg preserveAspectRatio="none" width="100%" height="100%" overflow="visible" style="display: block;" viewBox="0 0 54 52" fill="none" xmlns="http://www.w3.org/2000/svg">
<g id="Group 667">
<g id="Vector">
<path d="M34.8 24.405V29.6062Z" fill="var(--fill-0, #D9D9D9)"/>
<path d="M1 27.0056H6.2Z" fill="var(--fill-0, #D9D9D9)"/>
<path d="M47.8 27.0056H53Z" fill="var(--fill-0, #D9D9D9)"/>
<path d="M47.8 37.4078C47.8 38.7873 47.2521 40.1102 46.277 41.0856C45.3018 42.061 43.9791 42.609 42.6 42.609H18.7528C17.3738 42.6093 16.0514 43.1574 15.0764 44.1329L9.3512 49.8593C9.09303 50.1175 8.76413 50.2933 8.40607 50.3645C8.04801 50.4358 7.67688 50.3992 7.3396 50.2595C7.00232 50.1197 6.71403 49.8831 6.51118 49.5795C6.30834 49.2759 6.20005 48.919 6.2 48.5538V16.6034C6.2 15.2239 6.74785 13.901 7.72304 12.9256C8.69823 11.9502 10.0209 11.4022 11.4 11.4022H42.6C43.9791 11.4022 45.3018 11.9502 46.277 12.9256C47.2521 13.901 47.8 15.2239 47.8 16.6034V37.4078Z" fill="#1AA24C"/>
<path d="M19.2 24.405V29.6062Z" fill="var(--fill-0, #D9D9D9)"/>
<path d="M27 11.4022V1H16.6M34.8 24.405V29.6062M1 27.0056H6.2M47.8 27.0056H53M19.2 24.405V29.6062M47.8 37.4078C47.8 38.7873 47.2521 40.1102 46.277 41.0856C45.3018 42.061 43.9791 42.609 42.6 42.609H18.7528C17.3738 42.6093 16.0514 43.1574 15.0764 44.1329L9.3512 49.8593C9.09303 50.1175 8.76413 50.2933 8.40607 50.3645C8.04801 50.4358 7.67688 50.3992 7.3396 50.2595C7.00232 50.1197 6.71403 49.8831 6.51118 49.5795C6.30834 49.2759 6.20005 48.919 6.2 48.5538V16.6034C6.2 15.2239 6.74785 13.901 7.72304 12.9256C8.69823 11.9502 10.0209 11.4022 11.4 11.4022H42.6C43.9791 11.4022 45.3018 11.9502 46.277 12.9256C47.2521 13.901 47.8 15.2239 47.8 16.6034V37.4078Z" stroke="var(--stroke-0, #1AA24C)" stroke-width="2" stroke-linecap="round" stroke-linejoin="round"/>
</g>
<path id="Vector_2" d="M19.1992 24.4001V29.6013" stroke="var(--stroke-0, white)" stroke-width="2" stroke-linecap="round" stroke-linejoin="round"/>
<path id="Vector_3" d="M34.8008 24.4001V29.6013" stroke="var(--stroke-0, white)" stroke-width="2" stroke-linecap="round" stroke-linejoin="round"/>
</g>
</svg>
