<svg preserveAspectRatio="none" width="100%" height="100%" overflow="visible" style="display: block;" viewBox="0 0 25 25" fill="none" xmlns="http://www.w3.org/2000/svg">
<path id="Logo" d="M12.4999 22.425C13.2355 22.425 13.793 22.5534 14.3777 22.7C14.5161 23.5234 14.6564 24.3037 14.7908 25H10.2092C10.3436 24.3037 10.4839 23.5234 10.6224 22.7C11.2071 22.5531 11.7646 22.425 12.5002 22.425H12.4999ZM20.8411 7.925C19.2227 5.125 18.4258 0 12.4999 0C6.57394 0 5.77706 5.125 4.15862 7.925C2.51519 10.775 -0.597002 12.425 0.100185 17.075C0.722686 21.275 3.7605 23.125 7.64456 23.125C9.01175 23.125 9.84112 22.8959 10.6224 22.7C11.1252 19.7091 11.6058 16.1456 11.7033 13.95C10.8817 16.225 8.61581 17.825 5.47862 17.825L5.30425 15.325C10.9064 15.575 11.753 12.425 12.0271 8.4C11.6286 9.6 10.2342 11.125 7.29612 10.95L7.17175 9.075C9.313 9.075 11.6536 8.925 11.9274 6.2H13.0727C13.3464 8.925 15.6871 9.075 17.8283 9.075L17.7039 10.95C14.7658 11.125 13.3714 9.6 12.973 8.4C13.2468 12.425 14.0933 15.575 19.6958 15.325L19.5214 17.825C16.3842 17.825 14.1183 16.225 13.2967 13.95C13.3942 16.1456 13.8746 19.7091 14.3777 22.7C15.1586 22.8959 15.9883 23.125 17.3555 23.125C21.2399 23.125 24.2774 21.275 24.8999 17.075C25.5971 12.425 22.4846 10.775 20.8414 7.925H20.8411Z" fill="var(--fill-0, white)"/>
</svg>
