<svg preserveAspectRatio="none" width="100%" height="100%" overflow="visible" style="display: block;" viewBox="0 0 23 26" fill="none" xmlns="http://www.w3.org/2000/svg">
<path id="Vector" d="M11.5 25V21.2105M17.836 14.8947L21.6376 19.0632C21.8113 19.2397 21.9292 19.4632 21.9766 19.7059C22.024 19.9486 21.999 20.1998 21.9046 20.4284C21.8101 20.6571 21.6504 20.8531 21.4453 20.9921C21.2402 21.1311 20.9986 21.2071 20.7506 21.2105H2.24941C2.00138 21.2071 1.75983 21.1311 1.55471 20.9921C1.34958 20.8531 1.18989 20.6571 1.09545 20.4284C1.001 20.1998 0.975953 19.9486 1.0234 19.7059C1.07085 19.4632 1.1887 19.2397 1.36236 19.0632L5.16398 14.8947H4.78382C4.53579 14.8913 4.29424 14.8153 4.08911 14.6763C3.88399 14.5373 3.7243 14.3413 3.62986 14.1127C3.53541 13.884 3.51036 13.6328 3.55781 13.3901C3.60525 13.1474 3.72311 12.9239 3.89677 12.7474L7.69839 8.57895H7.44495C7.18612 8.60222 6.92637 8.54561 6.7009 8.41678C6.47544 8.28795 6.29516 8.09314 6.1845 7.85875C6.07385 7.62435 6.03817 7.36171 6.08229 7.10643C6.12642 6.85114 6.24822 6.61554 6.43118 6.43158L11.5 1L16.5688 6.43158C16.7518 6.61554 16.8736 6.85114 16.9177 7.10643C16.9618 7.36171 16.9262 7.62435 16.8155 7.85875C16.7048 8.09314 16.5246 8.28795 16.2991 8.41678C16.0736 8.54561 15.8139 8.60222 15.5551 8.57895H15.3016L19.1032 12.7474C19.2769 12.9239 19.3947 13.1474 19.4422 13.3901C19.4896 13.6328 19.4646 13.884 19.3701 14.1127C19.2757 14.3413 19.116 14.5373 18.9109 14.6763C18.7058 14.8153 18.4642 14.8913 18.2162 14.8947H17.836Z" stroke="var(--stroke-0, #8B9C95)" stroke-width="2" stroke-linecap="round" stroke-linejoin="round"/>
</svg>
