<svg preserveAspectRatio="none" width="100%" height="100%" overflow="visible" style="display: block;" viewBox="0 0 35 35" fill="none" xmlns="http://www.w3.org/2000/svg">
<path id="Logo" d="M17.4998 31.395C18.5297 31.395 19.3102 31.5748 20.1287 31.78C20.3225 32.9328 20.519 34.0252 20.7071 35H14.2929C14.481 34.0252 14.6775 32.9328 14.8713 31.78C15.6899 31.5744 16.4704 31.395 17.5002 31.395H17.4998ZM29.1775 11.095C26.9117 7.175 25.7961 0 17.4998 0C9.20349 0 8.08787 7.175 5.82206 11.095C3.52125 15.085 -0.835801 17.395 0.140259 23.905C1.01176 29.785 5.26469 32.375 10.7024 32.375C12.6164 32.375 13.7775 32.0543 14.8713 31.78C15.5752 27.5927 16.2481 22.6039 16.3846 19.53C15.2344 22.715 12.0621 24.955 7.67006 24.955L7.42593 21.455C15.269 21.805 16.4542 17.395 16.8379 11.76C16.28 13.44 14.3279 15.575 10.2146 15.33L10.0404 12.705C13.0382 12.705 16.315 12.495 16.6983 8.68H18.3017C18.685 12.495 21.9618 12.705 24.9596 12.705L24.7855 15.33C20.6721 15.575 18.72 13.44 18.1622 11.76C18.5454 17.395 19.7306 21.805 27.5741 21.455L27.33 24.955C22.9379 24.955 19.7656 22.715 18.6154 19.53C18.7519 22.6039 19.4243 27.5927 20.1287 31.78C21.222 32.0543 22.3836 32.375 24.2976 32.375C29.7358 32.375 33.9883 29.785 34.8598 23.905C35.8358 17.395 31.4783 15.085 29.178 11.095H29.1775Z" fill="var(--fill-0, #068043)"/>
</svg>
