<svg preserveAspectRatio="none" width="100%" height="100%" overflow="visible" style="display: block;" viewBox="0 0 26 23" fill="none" xmlns="http://www.w3.org/2000/svg">
<path id="Vector" d="M13.012 8.01077V12.6738M13.012 17.3369H13.024M24.6787 18.5026L15.0864 2.18196C14.8772 1.82315 14.5739 1.52469 14.2074 1.31705C13.8409 1.1094 13.4242 1 13 1C12.5758 1 12.1592 1.1094 11.7927 1.31705C11.4262 1.52469 11.1228 1.82315 10.9137 2.18196L1.32134 18.5026C1.10993 18.8586 0.99907 19.2626 1.00001 19.6736C1.00094 20.0847 1.11364 20.4882 1.32667 20.8433C1.5397 21.1983 1.8455 21.4923 2.21306 21.6954C2.58063 21.8986 2.99689 22.0036 3.41967 21.9999H22.6044C23.0251 21.9995 23.4383 21.8915 23.8026 21.6866C24.1668 21.4818 24.4691 21.1875 24.6793 20.8331C24.8895 20.4787 25.0001 20.0769 25 19.6678C24.9999 19.2587 24.8891 18.8569 24.6787 18.5026Z" stroke="var(--stroke-0, #E45D5D)" stroke-width="2" stroke-linecap="round" stroke-linejoin="round"/>
</svg>
