<svg preserveAspectRatio="none" width="100%" height="100%" overflow="visible" style="display: block;" viewBox="0 0 13 13" fill="none" xmlns="http://www.w3.org/2000/svg">
<path id="Vector" d="M8.198 8.198C7.86225 8.53338 7.4346 8.76169 6.96912 8.85408C6.50364 8.94647 6.02122 8.89878 5.58283 8.71706C5.14444 8.53533 4.76977 8.22771 4.50618 7.83309C4.24258 7.43847 4.10189 6.97456 4.10189 6.5C4.10189 6.02544 4.24258 5.56153 4.50618 5.16691C4.76977 4.77229 5.14444 4.46467 5.58283 4.28294C6.02122 4.10122 6.50364 4.05353 6.96912 4.14592C7.4346 4.23831 7.86225 4.46662 8.198 4.802M12.5 6.5C12.5 9.81371 9.81371 12.5 6.5 12.5C3.18629 12.5 0.5 9.81371 0.5 6.5C0.5 3.18629 3.18629 0.5 6.5 0.5C9.81371 0.5 12.5 3.18629 12.5 6.5Z" stroke="var(--stroke-0, #829B99)" stroke-linecap="round" stroke-linejoin="round"/>
</svg>
